<svg width="512" height="512" viewBox="0 0 512 512" fill="none" xmlns="http://www.w3.org/2000/svg">
<rect width="512" height="512" rx="102.4" fill="#0A0B0F"/>
<g transform="translate(173.3, 106) scale(0.1855)">
    <path fill="#0dffff" d="M579 0 502 248 446 315 460 388 366 690 483 815 550 734 456 738 541 715 572 678 601 595 586 688 607 658 653 521 629 451 617 540 598 374 642 441 630 111zM237 196 300 413 195 633 186 551 150 619 146 690 133 659 0 911 274 732 260 665 293 719 323 697 314 593 338 660 423 413zM317 739 150 841 185 886 125 856 71 889 200 1052 169 1052 253 1156 254 1079 490 1276 523 1390 529 1295 484 1107 357 1034 328 978 277 978 312 964 369 846 317 868 281 912 290 870 261 870 221 898 278 833zM353 727 335 782 428 860 457 910 457 838zM576 762 490 842 479 919zM610 793 475 965 514 1035 524 1004 606 924zM744 564 744 734 629 826 629 934 682 962 679 972 714 1026 658 987 636 955 598 961 536 1026 602 987 628 985 646 1007 491 1617 728 1150 732 1205 841 1030 775 1062 892 841z" />
</g>
</svg>